HIERARCHY
ROOT Hips
{
    OFFSET 0.000000 0.000000 0.000000
    CHANNELS 6 Xposition Yposition Zposition Zrotation Xrotation Yrotation
    JOINT Spine
    {
        OFFSET -0.000000 14.517291 0.000000
        CHANNELS 3 Zrotation Xrotation Yrotation
        JOINT Spine1
        {
            OFFSET -0.000000 37.558300 0.000000
            CHANNELS 3 Zrotation Xrotation Yrotation
            JOINT Neck
            {
                OFFSET -0.000000 37.404057 3.400369
                CHANNELS 3 Zrotation Xrotation Yrotation
                JOINT Head
                {
                    OFFSET -0.000000 24.785618 -3.540803
                    CHANNELS 3 Zrotation Xrotation Yrotation
                    End Site
                    {
                        OFFSET -0.000000 35.408028 0.000000
                    }
                }
            }
            JOINT LeftShoulder
            {
                OFFSET 6.992933 33.973492 -0.192664
                CHANNELS 3 Zrotation Xrotation Yrotation
                JOINT LeftArm
                {
                    OFFSET 21.527611 0.000000 0.000000
                    CHANNELS 3 Zrotation Xrotation Yrotation
                    JOINT LeftForeArm
                    {
                        OFFSET 56.353916 0.000000 0.000000
                        CHANNELS 3 Zrotation Xrotation Yrotation
                        JOINT LeftHand
                        {
                            OFFSET 47.774071 0.000000 0.000000
                            CHANNELS 3 Zrotation Xrotation Yrotation
                            End Site
                            {
                                OFFSET 26.556021 0.000000 0.000000
                            }
                        }
                    }
                }
            }
            JOINT RightShoulder
            {
                OFFSET -7.065357 33.973492 -0.192664
                CHANNELS 3 Zrotation Xrotation Yrotation
                JOINT RightArm
                {
                    OFFSET -21.527611 0.000000 0.000000
                    CHANNELS 3 Zrotation Xrotation Yrotation
                    JOINT RightForeArm
                    {
                        OFFSET -56.353916 0.000000 0.000000
                        CHANNELS 3 Zrotation Xrotation Yrotation
                        JOINT RightHand
                        {
                            OFFSET -47.774071 0.000000 0.000000
                            CHANNELS 3 Zrotation Xrotation Yrotation
                            End Site
                            {
                                OFFSET -26.556021 0.000000 0.000000
                            }
                        }
                    }
                }
            }
        }
    }
    JOINT LeftUpLeg
    {
        OFFSET 17.704014 0.000000 0.000000
        CHANNELS 3 Zrotation Xrotation Yrotation
        JOINT LeftLeg
        {
            OFFSET -0.000000 -81.181816 0.000000
            CHANNELS 3 Zrotation Xrotation Yrotation
            JOINT LeftFoot
            {
                OFFSET -0.000000 -62.821102 0.000000
                CHANNELS 3 Zrotation Xrotation Yrotation
                JOINT LeftToeBase
                {
                    OFFSET -0.000000 -11.507608 26.556021
                    CHANNELS 3 Zrotation Xrotation Yrotation
                    End Site
                    {
                        OFFSET -0.000000 0.000000 7.081605
                    }
                }
            }
        }
    }
    JOINT RightUpLeg
    {
        OFFSET -17.704014 0.000000 0.000000
        CHANNELS 3 Zrotation Xrotation Yrotation
        JOINT RightLeg
        {
            OFFSET -0.000000 -81.181816 0.000000
            CHANNELS 3 Zrotation Xrotation Yrotation
            JOINT RightFoot
            {
                OFFSET -0.000000 -62.821102 0.000000
                CHANNELS 3 Zrotation Xrotation Yrotation
                JOINT RightToeBase
                {
                    OFFSET -0.000000 -11.507608 26.556021
                    CHANNELS 3 Zrotation Xrotation Yrotation
                    End Site
                    {
                        OFFSET -0.000000 0.000000 7.081605
                    }
                }
            }
        }
    }
}
MOTION
Frames:    14
Frame Time:    0.008333
25.333235    155.562927    -36.278469    0.184648    -1.380439    -42.573101    2.547866    -1.125395    3.720346    1.432592    0.954472    1.219722    12.341051    1.422851    13.275311    -8.054270    6.809484    11.479593    5.260010    3.026905    -12.251043    -22.397488    -6.916923    -28.522367    3.076528    -40.463036    -86.306282    -11.819873    -36.304558    -23.071413    -7.424273    5.119118    -0.267919    34.563652    8.614830    76.162949    4.975101    -3.631872    102.351067    9.829883    -7.726381    23.799192    17.501249    -19.736809    3.741239    -11.918195    19.664007    -4.523746    -8.185822    0.138763    37.524574    0.000000    0.000000    0.000000    -15.309732    2.571313    -7.677655    7.306520    28.769653    -2.041403    4.266381    -22.876869    -17.779997    0.000000    0.000000    0.000000    
25.338110    155.548233    -36.299686    0.151982    -1.397573    -42.462009    2.538296    -1.123528    3.658495    1.392721    0.971302    1.199213    12.448527    1.356844    13.291995    -8.061961    6.866705    11.478248    5.244021    3.102308    -12.432212    -22.349760    -7.073134    -29.905190    4.094251    -41.150536    -84.554306    -12.073298    -36.280682    -23.487230    -7.348543    5.111281    -0.264325    34.515850    8.627837    76.160347    4.972253    -3.661232    102.375359    9.842270    -7.749019    23.835140    17.483757    -19.751154    3.670984    -11.914459    19.660055    -4.571759    -8.172745    0.159024    37.524864    0.000000    0.000000    0.000000    -15.283933    2.636956    -7.757958    7.300759    28.779022    -2.058731    4.260026    -22.897655    -17.775278    0.000000    0.000000    0.000000    
25.343931    155.533447    -36.318554    0.119719    -1.417213    -42.355061    2.530619    -1.118971    3.600226    1.349227    0.991800    1.179950    12.559096    1.309247    13.316213    -8.077446    6.888068    11.483097    5.229053    3.149554    -12.651591    -22.092501    -6.649495    -31.210291    5.821959    -42.496971    -82.312698    -12.738772    -36.451839    -24.199745    -7.280724    5.095070    -0.254622    34.467072    8.642024    76.153267    4.965618    -3.702962    102.409630    9.852068    -7.782476    23.851557    17.460440    -19.765364    3.609448    -11.898551    19.666061    -4.608485    -8.170877    0.172891    37.504326    0.000000    0.000000    0.000000    -15.261998    2.706463    -7.826737    7.304637    28.778957    -2.066736    4.260915    -22.924097    -17.793274    0.000000    0.000000    0.000000    
25.350183    155.520294    -36.337025    0.092545    -1.439934    -42.259438    2.520913    -1.100772    3.547273    1.290352    0.987411    1.163006    12.682608    1.249484    13.338432    -8.086386    6.943893    11.485565    5.230701    3.184429    -12.881555    -22.184639    -7.237816    -32.499840    6.463125    -42.589890    -80.737152    -12.975150    -36.140961    -24.642950    -7.201513    5.092535    -0.249196    34.416275    8.658097    76.147179    4.957332    -3.736547    102.443527    9.890938    -7.798574    23.879631    17.436268    -19.773417    3.554896    -11.888405    19.661787    -4.629018    -8.167990    0.203594    37.480556    0.000000    0.000000    0.000000    -15.246974    2.768032    -7.871736    7.315806    28.782475    -2.094347    4.247689    -22.950966    -17.813570    0.000000    0.000000    0.000000    
25.358204    155.507706    -36.347855    0.069727    -1.468013    -42.172340    2.515382    -1.096773    3.495249    1.214647    0.998999    1.146230    12.806785    1.213101    13.358922    -8.084740    6.966900    11.487199    5.196349    3.340212    -13.148142    -21.974567    -7.397809    -33.740952    7.739106    -43.288971    -78.743973    -13.404703    -36.082340    -25.210997    -7.118964    5.092665    -0.230148    34.360645    8.672288    76.142166    4.946827    -3.791218    102.467056    9.915924    -7.833011    23.927431    17.403612    -19.772814    3.489039    -11.878961    19.652637    -4.666452    -8.152970    0.220033    37.477093    0.000000    0.000000    0.000000    -15.243093    2.824320    -7.930300    7.309749    28.796066    -2.114789    4.267354    -22.967066    -17.793375    0.000000    0.000000    0.000000    
25.366806    155.494324    -36.364777    0.050004    -1.493718    -42.091103    2.499904    -1.081935    3.438837    1.142769    1.003029    1.128103    12.945632    1.166030    13.394638    -8.098223    6.991860    11.500276    5.229397    3.346191    -13.367182    -21.896029    -7.486001    -34.962662    8.826625    -43.849117    -76.849205    -13.769144    -36.050850    -25.774004    -7.030124    5.074028    -0.201824    34.297935    8.698908    76.126808    4.931570    -3.845652    102.511108    9.963566    -7.863378    23.923748    17.375998    -19.776270    3.434139    -11.876556    19.643641    -4.697730    -8.151395    0.235423    37.488495    0.000000    0.000000    0.000000    -15.238667    2.876978    -7.975213    7.315934    28.805151    -2.095102    4.245250    -23.001583    -17.838511    0.000000    0.000000    0.000000    
25.379229    155.481354    -36.380543    0.034236    -1.522683    -42.006741    2.487227    -1.063087    3.381705    1.064590    1.003753    1.109866    13.086619    1.113008    13.430759    -8.124210    7.023573    11.512147    5.272022    3.350796    -13.583598    -21.826923    -7.543925    -36.178890    9.989241    -44.455750    -74.909904    -14.189173    -36.070484    -26.267965    -6.950365    5.065168    -0.189458    34.254032    8.709213    76.135040    4.919470    -3.864454    102.535744    9.949069    -7.873051    23.921741    17.337269    -19.776476    3.369459    -11.863647    19.622570    -4.730699    -8.151841    0.255688    37.485081    0.000000    0.000000    0.000000    -15.241950    2.924400    -8.023876    7.326525    28.822857    -2.135492    4.246798    -23.027779    -17.830244    0.000000    0.000000    0.000000    
25.393496    155.470444    -36.398277    0.018513    -1.548360    -41.927521    2.476704    -1.051101    3.318748    0.986385    1.024276    1.089486    13.236234    1.043707    13.478457    -8.167137    7.065095    11.532206    5.316875    3.311265    -13.801906    -21.766394    -7.632735    -37.330040    10.961688    -44.963531    -73.109558    -14.588732    -36.123314    -26.797438    -6.868840    5.032278    -0.162333    34.201077    8.730010    76.133278    4.888746    -3.891094    102.559013    9.941772    -7.865320    23.924976    17.306103    -19.782368    3.294142    -11.864696    19.612040    -4.732541    -8.150340    0.275743    37.471596    0.000000    0.000000    0.000000    -15.242768    2.972281    -8.064672    7.333371    28.828417    -2.126974    4.248467    -23.050877    -17.863186    0.000000    0.000000    0.000000    
25.406033    155.462677    -36.414383    0.007239    -1.569945    -41.855392    2.456311    -1.033900    3.266909    0.926287    1.024659    1.072840    13.334085    0.955966    13.509652    -8.137893    7.126444    11.547112    5.360026    3.283919    -14.013088    -21.725014    -7.722108    -38.469643    11.964303    -45.412819    -71.287231    -14.994051    -36.131809    -27.284426    -6.797811    5.017746    -0.160705    34.165272    8.735603    76.146393    4.901404    -3.878462    102.586075    9.935063    -7.873635    23.916225    17.274662    -19.783880    3.234446    -11.858497    19.587248    -4.731665    -8.157016    0.303066    37.450691    0.000000    0.000000    0.000000    -15.242111    3.008894    -8.123568    7.329858    28.843418    -2.149031    4.241005    -23.065310    -17.855974    0.000000    0.000000    0.000000    
25.417713    155.455795    -36.425598    -0.005355    -1.596966    -41.788284    2.431637    -1.028177    3.209132    0.869630    1.049103    1.054011    13.471173    0.888028    13.547618    -8.181520    7.174006    11.559010    5.426302    3.281193    -14.207160    -21.744932    -7.939583    -39.617283    12.692721    -45.764450    -69.650078    -15.305628    -36.220291    -27.697453    -6.727411    5.006752    -0.143871    34.112736    8.735738    76.182320    4.810906    -3.927662    102.579353    9.796633    -7.826073    24.058128    17.242521    -19.775124    3.180270    -11.852919    19.559326    -4.737063    -8.167241    0.320066    37.440636    0.000000    0.000000    0.000000    -15.246078    3.053865    -8.189539    7.316586    28.851803    -2.147105    4.252812    -23.086210    -17.838503    0.000000    0.000000    0.000000    
25.434515    155.450577    -36.438927    -0.012598    -1.614478    -41.730507    2.413240    -1.021088    3.153264    0.813625    1.056228    1.035912    13.560206    0.831103    13.578326    -8.167138    7.198710    11.574295    5.488370    3.280342    -14.400472    -21.748487    -8.084301    -40.726196    13.498308    -46.168648    -67.980042    -16.051836    -36.228100    -28.397156    -6.650826    4.989429    -0.112137    34.031380    8.748479    76.191757    4.789250    -3.970487    102.583984    9.784672    -7.847673    24.024876    17.211807    -19.772886    3.154906    -11.838660    19.532600    -4.743239    -8.159542    0.351838    37.403828    0.000000    0.000000    0.000000    -15.247316    3.084730    -8.232111    7.315219    28.852673    -2.160887    4.253223    -23.094641    -17.843834    0.000000    0.000000    0.000000    
25.446558    155.445374    -36.450516    -0.016419    -1.625131    -41.679527    2.389327    -1.023975    3.102429    0.766752    1.068933    1.019319    13.674587    0.781635    13.614907    -8.193543    7.206597    11.588495    5.557119    3.285479    -14.607077    -21.725224    -8.188793    -41.771587    14.409995    -46.564114    -66.270645    -16.373205    -36.320759    -28.790220    -6.580113    4.959455    -0.087415    33.981998    8.758647    76.187462    4.807481    -3.962326    102.597298    9.798253    -7.861319    24.020403    17.190557    -19.775993    3.115629    -11.836501    19.506361    -4.767619    -8.162245    0.366977    37.422852    0.000000    0.000000    0.000000    -15.244257    3.109431    -8.283060    7.299210    28.847794    -2.167559    4.262255    -23.107225    -17.832394    0.000000    0.000000    0.000000    
25.458717    155.443726    -36.460518    -0.021944    -1.634896    -41.640606    2.362327    -1.027498    3.052256    0.737581    1.088064    1.002800    13.779555    0.737446    13.657085    -8.237549    7.204243    11.608351    5.619318    3.314799    -14.794966    -21.740677    -8.428056    -42.798859    15.055663    -46.819210    -64.754128    -16.472027    -36.446487    -29.073330    -6.515480    4.935514    -0.067712    33.921291    8.768784    76.198311    4.841043    -3.948378    102.607475    9.886209    -7.876429    23.968977    17.174770    -19.772957    3.093186    -11.831061    19.479506    -4.778577    -8.164538    0.398007    37.410553    0.000000    0.000000    0.000000    -15.239635    3.132997    -8.308490    7.296155    28.825281    -2.406909    4.339370    -23.080976    -17.588680    0.000000    0.000000    0.000000    
25.474474    155.442947    -36.468395    -0.026770    -1.644588    -41.609024    2.339600    -1.031127    3.011086    0.697291    1.113039    0.989294    13.884275    0.654537    13.693352    -8.249407    7.244085    11.622719    5.715460    3.331585    -14.992386    -21.493874    -8.207579    -43.726707    16.402639    -47.444313    -62.757343    -16.532822    -36.753067    -29.369961    -6.440874    4.917845    -0.050876    33.860600    8.767780    76.203064    4.871104    -3.939339    102.615623    9.944241    -7.896816    23.931034    17.155849    -19.767298    3.083373    -11.817657    19.454462    -4.797886    -8.161648    0.415660    37.397980    0.000000    0.000000    0.000000    -15.241268    3.150870    -8.344664    7.282364    28.825991    -2.368178    4.347310    -23.093977    -17.608498    0.000000    0.000000    0.000000    
